<mxfile host="app.diagrams.net" modified="2023-05-03T02:33:03.920Z" agent="Mozilla/5.0 (X11; Linux x86_64; rv:109.0) Gecko/20100101 Firefox/112.0" etag="y4tQXMJOQMgcU90f5T_K" version="21.2.3" type="device">
  <diagram name="Page-1" id="meVpuucZmTRkXuUqe6zO">
    <mxGraphModel dx="558" dy="941" grid="1" gridSize="10" guides="1" tooltips="1" connect="1" arrows="1" fold="1" page="1" pageScale="1" pageWidth="850" pageHeight="1100" math="0" shadow="0">
      <root>
        <mxCell id="0" />
        <mxCell id="1" parent="0" />
        <mxCell id="MFKZGZSC7KuNVaA1Gjoy-14" value="" style="edgeStyle=orthogonalEdgeStyle;rounded=0;orthogonalLoop=1;jettySize=auto;html=1;" edge="1" parent="1" source="MFKZGZSC7KuNVaA1Gjoy-1" target="MFKZGZSC7KuNVaA1Gjoy-3">
          <mxGeometry relative="1" as="geometry" />
        </mxCell>
        <mxCell id="MFKZGZSC7KuNVaA1Gjoy-1" value="&lt;div&gt;Start&lt;/div&gt;" style="strokeWidth=2;html=1;shape=mxgraph.flowchart.terminator;whiteSpace=wrap;" vertex="1" parent="1">
          <mxGeometry x="50" y="20" width="100" height="60" as="geometry" />
        </mxCell>
        <mxCell id="MFKZGZSC7KuNVaA1Gjoy-15" value="" style="edgeStyle=orthogonalEdgeStyle;rounded=0;orthogonalLoop=1;jettySize=auto;html=1;" edge="1" parent="1" source="MFKZGZSC7KuNVaA1Gjoy-3" target="MFKZGZSC7KuNVaA1Gjoy-5">
          <mxGeometry relative="1" as="geometry" />
        </mxCell>
        <mxCell id="MFKZGZSC7KuNVaA1Gjoy-3" value="circle" style="verticalLabelPosition=middle;verticalAlign=middle;html=1;shape=process;whiteSpace=wrap;rounded=1;size=0.14;arcSize=6;labelPosition=center;align=center;" vertex="1" parent="1">
          <mxGeometry x="50" y="120" width="100" height="60" as="geometry" />
        </mxCell>
        <mxCell id="MFKZGZSC7KuNVaA1Gjoy-10" value="" style="edgeStyle=orthogonalEdgeStyle;rounded=0;orthogonalLoop=1;jettySize=auto;html=1;" edge="1" parent="1" source="MFKZGZSC7KuNVaA1Gjoy-4" target="MFKZGZSC7KuNVaA1Gjoy-6">
          <mxGeometry relative="1" as="geometry" />
        </mxCell>
        <mxCell id="MFKZGZSC7KuNVaA1Gjoy-4" value="circle" style="strokeWidth=2;html=1;shape=mxgraph.flowchart.terminator;whiteSpace=wrap;" vertex="1" parent="1">
          <mxGeometry x="250" y="20" width="100" height="60" as="geometry" />
        </mxCell>
        <mxCell id="MFKZGZSC7KuNVaA1Gjoy-5" value="End" style="strokeWidth=2;html=1;shape=mxgraph.flowchart.terminator;whiteSpace=wrap;" vertex="1" parent="1">
          <mxGeometry x="50" y="220" width="100" height="60" as="geometry" />
        </mxCell>
        <mxCell id="MFKZGZSC7KuNVaA1Gjoy-11" value="" style="edgeStyle=orthogonalEdgeStyle;rounded=0;orthogonalLoop=1;jettySize=auto;html=1;" edge="1" parent="1" source="MFKZGZSC7KuNVaA1Gjoy-6" target="MFKZGZSC7KuNVaA1Gjoy-7">
          <mxGeometry relative="1" as="geometry" />
        </mxCell>
        <mxCell id="MFKZGZSC7KuNVaA1Gjoy-6" value="&lt;div&gt;input&lt;/div&gt;&lt;div&gt;radius&lt;br&gt;&lt;/div&gt;" style="shape=parallelogram;html=1;strokeWidth=2;perimeter=parallelogramPerimeter;whiteSpace=wrap;rounded=1;arcSize=12;size=0.23;" vertex="1" parent="1">
          <mxGeometry x="250" y="120" width="100" height="60" as="geometry" />
        </mxCell>
        <mxCell id="MFKZGZSC7KuNVaA1Gjoy-12" value="" style="edgeStyle=orthogonalEdgeStyle;rounded=0;orthogonalLoop=1;jettySize=auto;html=1;" edge="1" parent="1" source="MFKZGZSC7KuNVaA1Gjoy-7" target="MFKZGZSC7KuNVaA1Gjoy-8">
          <mxGeometry relative="1" as="geometry" />
        </mxCell>
        <mxCell id="MFKZGZSC7KuNVaA1Gjoy-7" value="area = PI * radius * radius" style="rounded=1;whiteSpace=wrap;html=1;absoluteArcSize=1;arcSize=14;strokeWidth=2;" vertex="1" parent="1">
          <mxGeometry x="250" y="220" width="100" height="60" as="geometry" />
        </mxCell>
        <mxCell id="MFKZGZSC7KuNVaA1Gjoy-13" value="" style="edgeStyle=orthogonalEdgeStyle;rounded=0;orthogonalLoop=1;jettySize=auto;html=1;" edge="1" parent="1" source="MFKZGZSC7KuNVaA1Gjoy-8" target="MFKZGZSC7KuNVaA1Gjoy-9">
          <mxGeometry relative="1" as="geometry" />
        </mxCell>
        <mxCell id="MFKZGZSC7KuNVaA1Gjoy-8" value="ci = 2 * PI * radius" style="rounded=1;whiteSpace=wrap;html=1;absoluteArcSize=1;arcSize=14;strokeWidth=2;" vertex="1" parent="1">
          <mxGeometry x="250" y="320" width="100" height="60" as="geometry" />
        </mxCell>
        <mxCell id="MFKZGZSC7KuNVaA1Gjoy-9" value="&lt;div&gt;print&lt;/div&gt;&lt;div&gt;area&lt;/div&gt;&lt;div&gt;ci&lt;br&gt;&lt;/div&gt;" style="shape=parallelogram;html=1;strokeWidth=2;perimeter=parallelogramPerimeter;whiteSpace=wrap;rounded=1;arcSize=12;size=0.23;" vertex="1" parent="1">
          <mxGeometry x="250" y="420" width="100" height="60" as="geometry" />
        </mxCell>
      </root>
    </mxGraphModel>
  </diagram>
</mxfile>
